<svg width="1697" height="1698" viewBox="0 0 1697 1698" fill="none" xmlns="http://www.w3.org/2000/svg">
<path fill-rule="evenodd" clip-rule="evenodd" d="M365.945 151.168C377.226 143.373 388.749 135.81 400.512 128.491C412.275 121.172 424.149 114.175 436.126 107.498C451.793 98.7637 471.577 104.395 480.315 120.075C489.053 135.756 483.436 155.548 467.769 164.282C456.7 170.453 445.721 176.922 434.841 183.692C423.961 190.462 413.307 197.454 402.881 204.659C388.123 214.856 367.892 211.148 357.692 196.377C347.493 181.606 351.188 161.365 365.945 151.168ZM533.319 95.542C527.037 78.7262 535.566 60.0058 552.369 53.7291C604.688 34.1858 658.175 20.1328 712.065 11.3935C729.771 8.52209 746.459 20.5573 749.339 38.2752C752.218 55.9929 740.198 72.6839 722.492 75.5554C672.761 83.6203 623.404 96.5883 575.119 114.625C558.316 120.901 539.601 112.358 533.319 95.542ZM285.746 257.197C298.614 269.71 298.913 290.285 286.414 303.154C258.682 331.705 233.428 362.096 210.729 393.999C200.328 408.617 180.047 412.025 165.431 401.61C150.815 391.196 147.398 370.902 157.8 356.284C182.396 321.714 209.762 288.78 239.815 257.84C252.314 244.972 272.878 244.684 285.746 257.197ZM763.882 36.646C762.749 18.7322 776.344 3.2992 794.248 2.17531C905.016 -4.77806 1015.83 10.1683 1120.17 45.4769C1137.17 51.2284 1146.3 69.6743 1140.56 86.6768C1134.82 103.679 1116.39 112.8 1099.39 107.049C1002.99 74.4268 900.622 60.6269 798.35 67.0469C780.447 68.1707 765.015 54.5599 763.882 36.646ZM86.5812 556.243C103.578 561.994 112.703 580.44 106.964 597.443C74.4118 693.882 60.6743 796.297 67.1457 898.629C68.2785 916.542 54.6834 931.976 36.78 933.099C18.8767 934.223 3.44475 920.612 2.31189 902.698C-4.69705 791.865 10.1818 680.996 45.415 576.615C51.1541 559.612 69.5849 550.491 86.5812 556.243ZM38.416 947.651C56.1225 944.78 72.8107 956.815 75.6901 974.533C83.7772 1024.3 96.7646 1073.69 114.817 1122.01C121.099 1138.82 112.57 1157.54 95.7671 1163.82C78.964 1170.1 60.2494 1161.55 53.9671 1144.74C34.4064 1092.38 20.3323 1038.86 11.569 984.932C8.68954 967.214 20.7094 950.523 38.416 947.651ZM1295.15 165.653C1305.55 151.034 1325.83 147.627 1340.45 158.041C1375.01 182.67 1407.94 210.069 1438.88 240.154C1451.75 252.667 1452.05 273.243 1439.55 286.111C1427.05 298.98 1406.48 299.268 1393.62 286.755C1365.06 258.992 1334.68 233.708 1302.78 210.98C1288.16 200.565 1284.75 180.271 1295.15 165.653ZM120.315 1216.87C135.982 1208.13 155.767 1213.76 164.505 1229.44C170.678 1240.52 177.15 1251.51 183.922 1262.4C190.694 1273.29 197.688 1283.95 204.894 1294.39C215.093 1309.16 211.398 1329.4 196.641 1339.6C181.883 1349.8 161.652 1346.09 151.452 1331.32C143.655 1320.03 136.091 1308.49 128.769 1296.72C121.448 1284.95 114.448 1273.06 107.769 1261.07C99.0306 1245.39 104.648 1225.6 120.315 1216.87ZM1500.37 358.13C1515.13 347.933 1535.36 351.64 1545.56 366.412C1553.36 377.703 1560.92 389.236 1568.24 401.01C1575.56 412.783 1582.56 424.668 1589.24 436.654C1597.98 452.335 1592.36 472.127 1576.7 480.861C1561.03 489.596 1541.25 483.965 1532.51 468.284C1526.33 457.206 1519.86 446.217 1513.09 435.328C1506.32 424.438 1499.32 413.775 1492.12 403.339C1481.92 388.568 1485.61 368.327 1500.37 358.13ZM1601.24 533.907C1618.05 527.631 1636.76 536.174 1643.04 552.99C1662.61 605.348 1676.68 658.873 1685.44 712.796C1688.32 730.514 1676.3 747.205 1658.6 750.077C1640.89 752.948 1624.2 740.913 1621.32 723.195C1613.23 673.432 1600.25 624.041 1582.19 575.72C1575.91 558.904 1584.44 540.184 1601.24 533.907ZM257.466 1411.62C269.965 1398.75 290.529 1398.46 303.397 1410.97C331.947 1438.74 362.335 1464.02 394.233 1486.75C408.849 1497.16 412.265 1517.46 401.864 1532.08C391.463 1546.69 371.183 1550.1 356.566 1539.69C322.003 1515.06 289.072 1487.66 258.133 1457.57C245.265 1445.06 244.966 1424.49 257.466 1411.62ZM1660.23 764.629C1678.14 763.505 1693.57 777.116 1694.7 795.029C1701.71 905.863 1686.83 1016.73 1651.6 1121.11C1645.86 1138.12 1627.43 1147.24 1610.43 1141.49C1593.43 1135.73 1584.31 1117.29 1590.05 1100.29C1622.6 1003.85 1636.34 901.431 1629.87 799.099C1628.73 781.186 1642.33 765.752 1660.23 764.629ZM556.454 1611.05C562.193 1594.05 580.624 1584.93 597.62 1590.68C694.024 1623.3 796.39 1637.1 898.662 1630.68C916.565 1629.56 931.997 1643.17 933.13 1661.08C934.263 1679 920.668 1694.43 902.764 1695.55C791.996 1702.51 681.18 1687.56 576.837 1652.25C559.841 1646.5 550.715 1628.05 556.454 1611.05ZM947.673 1659.45C944.794 1641.73 956.814 1625.04 974.52 1622.17C1024.25 1614.11 1073.61 1601.14 1121.89 1583.1C1138.7 1576.83 1157.41 1585.37 1163.69 1602.19C1169.97 1619 1161.45 1637.72 1144.64 1644C1092.32 1663.54 1038.84 1677.6 984.947 1686.33C967.241 1689.21 950.553 1677.17 947.673 1659.45ZM1531.58 1296.12C1546.2 1306.53 1549.61 1326.83 1539.21 1341.44C1514.62 1376.01 1487.25 1408.95 1457.2 1439.89C1444.7 1452.76 1424.13 1453.04 1411.27 1440.53C1398.4 1428.02 1398.1 1407.44 1410.6 1394.57C1438.33 1366.02 1463.58 1335.63 1486.28 1303.73C1496.68 1289.11 1516.96 1285.7 1531.58 1296.12ZM1216.7 1577.65C1207.96 1561.97 1213.58 1542.18 1229.24 1533.45C1240.31 1527.27 1251.29 1520.81 1262.17 1514.04C1273.05 1507.27 1283.7 1500.27 1294.13 1493.07C1308.89 1482.87 1329.12 1486.58 1339.32 1501.35C1349.52 1516.12 1345.82 1536.36 1331.07 1546.56C1319.79 1554.36 1308.26 1561.92 1296.5 1569.24C1284.74 1576.56 1272.86 1583.55 1260.89 1590.23C1245.22 1598.96 1225.43 1593.33 1216.7 1577.65Z" fill="url(#paint0_linear_0_6)"/>
<path fill-rule="evenodd" clip-rule="evenodd" d="M1559.5 872.174C1559.08 885.165 1558.29 898.215 1557.15 911.314C1556 924.413 1554.5 937.401 1552.67 950.268C1550.14 968.037 1533.69 980.379 1515.93 977.837C1498.17 975.295 1485.83 958.83 1488.36 941.062C1490.03 929.357 1491.39 917.538 1492.43 905.611C1493.47 893.684 1494.19 881.808 1494.58 869.991C1495.17 852.052 1510.18 837.998 1528.11 838.601C1546.04 839.204 1560.1 854.235 1559.5 872.174ZM1521.61 753.973C1503.98 757.314 1486.98 745.726 1483.63 728.091C1480.85 713.448 1477.57 698.965 1473.82 684.661C1469.25 667.3 1479.62 649.533 1496.97 644.976C1514.31 640.419 1532.08 650.8 1536.64 668.161C1540.78 683.914 1544.39 699.865 1547.46 715.991C1550.8 733.627 1539.23 750.631 1521.61 753.973ZM1494.83 1060.03C1511.6 1066.4 1520.04 1085.17 1513.68 1101.95C1507.87 1117.3 1501.54 1132.37 1494.73 1147.16C1487.22 1163.46 1467.93 1170.57 1451.63 1163.05C1435.34 1155.53 1428.22 1136.22 1435.73 1119.92C1441.92 1106.5 1447.66 1092.81 1452.94 1078.88C1459.3 1062.1 1478.05 1053.66 1494.83 1060.03ZM1446.98 1171.83C1462.34 1181.11 1467.28 1201.09 1458.02 1216.45C1403.57 1306.75 1329.83 1383.44 1243.03 1441.35C1228.1 1451.31 1207.94 1447.27 1197.98 1432.34C1188.02 1417.4 1192.04 1397.22 1206.97 1387.27C1285.9 1334.61 1352.92 1264.88 1402.39 1182.85C1411.65 1167.49 1431.62 1162.55 1446.98 1171.83ZM1431.47 499.513C1416.55 509.468 1396.38 505.431 1386.42 490.496C1333.75 411.489 1264.02 344.392 1182.01 294.855C1166.65 285.576 1161.71 265.599 1170.98 250.234C1180.24 234.869 1200.21 229.936 1215.57 239.215C1305.84 293.745 1382.53 367.561 1440.46 454.445C1450.42 469.38 1446.39 489.558 1431.47 499.513ZM1162.2 245.571C1154.69 261.869 1135.39 268.983 1119.1 261.462C1105.68 255.265 1091.99 249.511 1078.07 244.22C1061.29 237.847 1052.85 219.078 1059.21 202.299C1065.57 185.519 1084.33 177.082 1101.1 183.455C1116.44 189.282 1131.51 195.62 1146.29 202.444C1162.58 209.966 1169.7 229.274 1162.2 245.571ZM1052.63 1497.79C1057.19 1515.15 1046.83 1532.92 1029.48 1537.48C1013.74 1541.61 997.796 1545.21 981.68 1548.27C964.057 1551.61 947.055 1540.02 943.706 1522.39C940.357 1504.75 951.929 1487.75 969.553 1484.41C984.186 1481.63 998.66 1478.36 1012.95 1474.61C1030.3 1470.05 1048.07 1480.43 1052.63 1497.79ZM977.05 181.14C974.519 198.908 958.07 211.251 940.31 208.709C928.611 207.034 916.797 205.667 904.877 204.616C892.956 203.566 881.086 202.846 869.275 202.449C851.345 201.846 837.291 186.815 837.884 168.876C838.477 150.937 853.492 136.883 871.422 137.486C884.406 137.923 897.45 138.714 910.542 139.868C923.634 141.021 936.615 142.524 949.477 144.365C967.237 146.907 979.582 163.372 977.05 181.14ZM859.128 1528.85C858.535 1546.79 843.52 1560.84 825.59 1560.24C812.606 1559.81 799.562 1559.01 786.47 1557.86C773.378 1556.71 760.397 1555.2 747.535 1553.36C729.775 1550.82 717.43 1534.36 719.962 1516.59C722.493 1498.82 738.942 1486.48 756.702 1489.02C768.401 1490.69 780.215 1492.06 792.135 1493.11C804.056 1494.16 815.926 1494.88 827.737 1495.28C845.667 1495.88 859.721 1510.91 859.128 1528.85ZM753.306 175.34C756.655 192.975 745.083 209.98 727.459 213.322C712.826 216.096 698.352 219.368 684.058 223.123C666.709 227.679 648.946 217.299 644.382 199.938C639.819 182.577 650.184 164.809 667.533 160.253C683.275 156.118 699.216 152.514 715.331 149.458C732.955 146.117 749.957 157.705 753.306 175.34ZM637.8 1495.43C631.44 1512.21 612.686 1520.65 595.912 1514.27C580.574 1508.45 565.503 1502.11 550.72 1495.28C534.428 1487.76 527.307 1468.45 534.815 1452.16C542.324 1435.86 561.618 1428.75 577.91 1436.27C591.334 1442.46 605.017 1448.22 618.945 1453.51C635.718 1459.88 644.16 1478.65 637.8 1495.43ZM526.036 1447.49C516.77 1462.86 496.806 1467.79 481.445 1458.51C391.173 1403.98 314.482 1330.17 256.553 1243.28C246.596 1228.35 250.62 1208.17 265.541 1198.22C280.463 1188.26 300.632 1192.3 310.589 1207.23C363.266 1286.24 432.992 1353.34 514.999 1402.87C530.36 1412.15 535.301 1432.13 526.036 1447.49ZM499.034 265.391C508.992 280.326 504.968 300.504 490.047 310.459C411.112 363.123 344.088 432.851 294.623 514.877C285.357 530.241 265.393 535.174 250.032 525.896C234.671 516.617 229.73 496.639 238.996 481.275C293.447 390.982 367.181 314.288 453.986 256.374C468.908 246.419 489.077 250.456 499.034 265.391ZM245.377 534.677C261.669 542.199 268.79 561.507 261.282 577.805C255.096 591.232 249.352 604.92 244.071 618.852C237.711 635.632 218.957 644.068 202.183 637.696C185.409 631.323 176.967 612.555 183.328 595.775C189.144 580.431 195.469 565.356 202.282 550.568C209.791 534.27 229.085 527.156 245.377 534.677ZM200.046 1052.75C182.697 1057.31 164.934 1046.93 160.37 1029.57C156.23 1013.81 152.619 997.863 149.556 981.737C146.208 964.102 157.78 947.097 175.403 943.756C193.027 940.414 210.029 952.002 213.378 969.637C216.158 984.28 219.437 998.763 223.197 1013.07C227.76 1030.43 217.396 1048.2 200.046 1052.75ZM181.081 719.891C198.84 722.433 211.185 738.898 208.654 756.666C206.986 768.371 205.626 780.19 204.582 792.117C203.539 804.044 202.826 815.92 202.435 827.737C201.842 845.676 186.827 859.73 168.898 859.127C150.968 858.524 136.914 843.493 137.507 825.554C137.937 812.563 138.72 799.513 139.866 786.414C141.012 773.315 142.507 760.328 144.34 747.46C146.872 729.692 163.321 717.349 181.081 719.891Z" fill="url(#paint1_linear_0_6)"/>
<path fill-rule="evenodd" clip-rule="evenodd" d="M1425.71 862.68C1425.09 878.289 1423.86 893.988 1422 909.752C1420.15 925.515 1417.69 941.069 1414.67 956.394C1411.2 974.001 1394.11 985.449 1376.51 981.964C1358.91 978.478 1347.46 961.379 1350.94 943.772C1353.64 930.093 1355.83 916.199 1357.49 902.106C1359.15 888.013 1360.25 873.989 1360.8 860.057C1361.52 842.123 1376.63 828.171 1394.55 828.895C1412.48 829.62 1426.43 844.745 1425.71 862.68ZM1381.23 715.933C1363.97 720.81 1346.02 710.761 1341.13 693.487C1317.95 611.513 1275.59 536.741 1218.62 475.042C1206.44 461.855 1207.25 441.294 1220.42 429.117C1233.59 416.94 1254.14 417.76 1266.32 430.947C1330.14 500.057 1377.64 583.852 1403.64 675.824C1408.53 693.098 1398.49 711.055 1381.23 715.933ZM1235.13 1234.66C1247.3 1247.85 1246.5 1268.41 1233.32 1280.59C1164.28 1344.4 1080.56 1391.88 988.653 1417.85C971.391 1422.73 953.439 1412.68 948.555 1395.41C943.671 1378.13 953.704 1360.18 970.966 1355.3C1052.88 1332.15 1127.59 1289.8 1189.23 1232.83C1202.4 1220.66 1222.95 1221.48 1235.13 1234.66ZM967.784 287.517C964.31 305.125 947.226 316.573 929.627 313.087C915.954 310.38 902.066 308.18 887.98 306.51C873.894 304.841 859.878 303.734 845.953 303.172C828.028 302.447 814.076 287.322 814.79 269.387C815.504 251.453 830.614 237.501 848.539 238.225C864.14 238.856 879.832 240.095 895.587 241.962C911.342 243.829 926.889 246.292 942.207 249.325C959.807 252.811 971.258 269.91 967.784 287.517ZM835.661 1408.68C834.947 1426.61 819.837 1440.56 801.912 1439.84C786.311 1439.21 770.62 1437.97 754.864 1436.1C739.109 1434.23 723.562 1431.77 708.244 1428.74C690.644 1425.25 679.193 1408.15 682.667 1390.55C686.141 1372.94 703.225 1361.49 720.825 1364.98C734.497 1367.68 748.385 1369.88 762.471 1371.55C776.557 1373.22 790.573 1374.33 804.499 1374.89C822.423 1375.62 836.375 1390.74 835.661 1408.68ZM701.897 282.654C706.781 299.928 696.747 317.885 679.485 322.762C597.568 345.909 522.86 388.258 461.225 445.229C448.052 457.405 427.502 456.586 415.325 443.399C403.148 430.212 403.956 409.651 417.129 397.474C486.167 333.66 569.89 286.179 661.798 260.209C679.06 255.331 697.012 265.38 701.897 282.654ZM430.031 1248.95C416.857 1261.12 396.307 1260.3 384.13 1247.12C320.314 1178.01 272.814 1094.21 246.809 1002.24C241.925 984.965 251.959 967.008 269.22 962.13C286.482 957.252 304.434 967.302 309.319 984.575C332.497 1066.55 374.862 1141.32 431.835 1203.02C444.012 1216.21 443.204 1236.77 430.031 1248.95ZM273.939 696.099C291.538 699.584 302.989 716.684 299.515 734.291C296.816 747.969 294.625 761.863 292.964 775.956C291.303 790.049 290.204 804.073 289.65 818.006C288.935 835.94 273.825 849.892 255.9 849.167C237.975 848.443 224.023 833.317 224.737 815.383C225.359 799.773 226.59 784.074 228.447 768.311C230.305 752.548 232.758 736.994 235.781 721.669C239.255 704.062 256.339 692.614 273.939 696.099Z" fill="url(#paint2_linear_0_6)"/>
<path fill-rule="evenodd" clip-rule="evenodd" d="M1160.93 506.157C1169.58 514.936 1177.96 524.112 1186.03 533.684C1194.11 543.257 1201.75 553.06 1208.94 563.07C1219.42 577.644 1216.11 597.952 1201.55 608.428C1186.99 618.905 1166.69 615.583 1156.21 601.008C1150 592.361 1143.39 583.883 1136.4 575.597C1129.41 567.31 1122.17 559.375 1114.69 551.791C1102.09 539.01 1102.22 518.433 1114.99 505.831C1127.76 493.229 1148.32 493.375 1160.93 506.157ZM1055.37 461.866C1047.14 477.812 1027.55 484.06 1011.61 475.82C953.843 445.964 890.077 430.567 825.974 430.147C808.035 430.03 793.58 415.384 793.688 397.435C793.796 379.487 808.426 365.032 826.364 365.149C900.549 365.635 974.406 383.449 1041.4 418.074C1057.34 426.314 1063.6 445.92 1055.37 461.866ZM1265.67 809.83C1283.61 809.948 1298.06 824.593 1297.96 842.542C1297.51 916.768 1279.74 990.655 1245.17 1057.67C1236.95 1073.61 1217.36 1079.86 1201.41 1071.62C1185.47 1063.38 1179.22 1043.78 1187.44 1027.83C1217.25 970.047 1232.61 906.255 1232.99 842.117C1233.1 824.168 1247.73 809.713 1265.67 809.83ZM592.431 461.482C602.91 476.056 599.6 496.364 585.039 506.84C576.4 513.056 567.931 519.658 559.652 526.648C551.374 533.639 543.447 540.884 535.872 548.36C523.104 560.962 502.538 560.816 489.937 548.034C477.335 535.253 477.47 514.676 490.238 502.074C499.007 493.419 508.174 485.042 517.737 476.967C527.299 468.892 537.093 461.257 547.094 454.062C561.655 443.585 581.953 446.907 592.431 461.482ZM1157.51 1131.25C1170.11 1144.03 1169.97 1164.61 1157.2 1177.21C1148.44 1185.87 1139.27 1194.24 1129.71 1202.32C1120.14 1210.39 1110.35 1218.03 1100.35 1225.22C1085.79 1235.7 1065.49 1232.38 1055.01 1217.8C1044.53 1203.23 1047.84 1182.92 1062.4 1172.45C1071.04 1166.23 1079.51 1159.63 1087.79 1152.64C1096.07 1145.65 1104 1138.4 1111.57 1130.93C1124.34 1118.32 1144.9 1118.47 1157.51 1131.25ZM446.028 607.665C461.97 615.905 468.224 635.511 459.998 651.457C430.189 709.239 414.835 773.031 414.449 837.17C414.341 855.118 399.712 869.573 381.773 869.456C363.834 869.338 349.379 854.693 349.487 836.744C349.933 762.519 367.698 688.631 402.268 621.619C410.494 605.673 430.086 599.426 446.028 607.665ZM853.754 1281.85C853.647 1299.8 839.017 1314.25 821.078 1314.14C746.893 1313.65 673.036 1295.84 606.043 1261.21C590.102 1252.97 583.847 1233.37 592.073 1217.42C600.3 1201.47 619.892 1195.23 635.834 1203.47C693.6 1233.32 757.365 1248.72 821.468 1249.14C839.407 1249.26 853.862 1263.9 853.754 1281.85ZM445.892 1070.86C460.453 1060.38 480.751 1063.7 491.229 1078.28C497.446 1086.93 504.049 1095.4 511.04 1103.69C518.031 1111.98 525.276 1119.91 532.753 1127.49C545.354 1140.28 545.22 1160.85 532.452 1173.46C519.684 1186.06 499.118 1185.91 486.517 1173.13C477.862 1164.35 469.484 1155.17 461.408 1145.6C453.333 1136.03 445.697 1126.23 438.5 1116.22C428.022 1101.64 431.331 1081.33 445.892 1070.86Z" fill="url(#paint3_linear_0_6)"/>
<defs>
<linearGradient id="paint0_linear_0_6" x1="691.138" y1="1828.61" x2="1489.36" y2="171.908" gradientUnits="userSpaceOnUse">
<stop stop-color="#F5F3F5"/>
<stop offset="0.359375" stop-color="#FF4F79"/>
<stop offset="1" stop-color="#21FA90"/>
</linearGradient>
<linearGradient id="paint1_linear_0_6" x1="691.138" y1="1828.61" x2="1489.36" y2="171.908" gradientUnits="userSpaceOnUse">
<stop stop-color="#F5F3F5"/>
<stop offset="0.359375" stop-color="#FF4F79"/>
<stop offset="1" stop-color="#21FA90"/>
</linearGradient>
<linearGradient id="paint2_linear_0_6" x1="691.138" y1="1828.61" x2="1489.36" y2="171.908" gradientUnits="userSpaceOnUse">
<stop stop-color="#F5F3F5"/>
<stop offset="0.359375" stop-color="#FF4F79"/>
<stop offset="1" stop-color="#21FA90"/>
</linearGradient>
<linearGradient id="paint3_linear_0_6" x1="691.138" y1="1828.61" x2="1489.36" y2="171.908" gradientUnits="userSpaceOnUse">
<stop stop-color="#F5F3F5"/>
<stop offset="0.359375" stop-color="#FF4F79"/>
<stop offset="1" stop-color="#21FA90"/>
</linearGradient>
</defs>
</svg>
